<svg xmlns="http://www.w3.org/2000/svg" viewBox="0 0 94.44 94.44"><defs><style>.cls-1{fill:none;stroke:#1c1c1c;stroke-miterlimit:10;stroke-width:9px;}.cls-2{fill:#1c1c1c;}</style></defs><title>email_2</title><g id="Layer_2" data-name="Layer 2"><g id="OBJECTS"><path class="cls-1" d="M47.22,89.94h0A42.72,42.72,0,0,1,4.5,47.22h0A42.72,42.72,0,0,1,47.22,4.5h0A42.72,42.72,0,0,1,89.94,47.22h0A42.72,42.72,0,0,1,47.22,89.94Z"/><path class="cls-2" d="M67.07,66.2a4.15,4.15,0,0,0,2.82-1.06L56.2,51.44l-1,.69c-1,.75-1.85,1.34-2.49,1.76a14.9,14.9,0,0,1-2.55,1.3,7.77,7.77,0,0,1-3,.66h-.06a7.73,7.73,0,0,1-3-.66,14.18,14.18,0,0,1-2.55-1.3c-.64-.42-1.47-1-2.5-1.76l-.94-.69-13.7,13.7a4.18,4.18,0,0,0,2.83,1.06Z"/><path class="cls-2" d="M25.78,42.82a14.28,14.28,0,0,1-2.72-2.34V61.31L35.12,49.24C32.71,47.55,29.6,45.42,25.78,42.82Z"/><path class="cls-2" d="M68.68,42.82q-5.51,3.74-9.36,6.43L71.38,61.31V40.48A14.66,14.66,0,0,1,68.68,42.82Z"/><path class="cls-2" d="M67.07,28.23H27.37a3.83,3.83,0,0,0-3.19,1.41,5.4,5.4,0,0,0-1.12,3.5,6.28,6.28,0,0,0,1.48,3.68,13.48,13.48,0,0,0,3.16,3.12l5.52,3.84,4.35,3,2.72,1.9.4.29.75.53c.58.43,1.06.77,1.45,1s.85.55,1.4.88a8.42,8.42,0,0,0,1.55.72,4.13,4.13,0,0,0,1.35.25h.06a4,4,0,0,0,1.34-.25,8.19,8.19,0,0,0,1.56-.72c.54-.33,1-.62,1.4-.88s.87-.6,1.45-1l.75-.53.4-.29,2.73-1.89c2.23-1.56,5.53-3.84,9.89-6.87a13,13,0,0,0,3.29-3.32,7.12,7.12,0,0,0,1.32-4.07,4.35,4.35,0,0,0-4.31-4.32Z"/></g></g></svg>