<svg xmlns="http://www.w3.org/2000/svg" viewBox="0 0 42.42 42.42"><defs><style>.cls-1{fill:none;stroke:#1c1c1c;stroke-miterlimit:10;stroke-width:4px;}.cls-2{fill:#1c1c1c;}</style></defs><title>facebook</title><g id="Layer_2" data-name="Layer 2"><g id="Layer_1-2" data-name="Layer 1"><path class="cls-1" d="M21.21,40.42h0A19.21,19.21,0,0,1,2,21.21H2A19.21,19.21,0,0,1,21.21,2h0A19.21,19.21,0,0,1,40.42,21.21h0A19.21,19.21,0,0,1,21.21,40.42Z"/><path class="cls-2" d="M24.53,22.07h-3v9.76H17V22.07H14.87V18.25H17V15.78a4.22,4.22,0,0,1,4.54-4.54l3.33,0V15H22.45A.92.92,0,0,0,21.5,16v2.24h3.43Z"/></g></g></svg>