<svg xmlns="http://www.w3.org/2000/svg" viewBox="0 0 398.66 517.72"><defs><style>.cls-1{fill:none;}.cls-1,.cls-2{stroke:#000;stroke-linecap:round;stroke-linejoin:round;stroke-width:2px;}</style></defs><title>farzad</title><g id="Layer_2" data-name="Layer 2"><g id="Layer_1-2" data-name="Layer 1"><path class="cls-1" d="M102.13,188.31a2,2,0,0,0,.71,3.84C105.26,192.17,105,187.09,102.13,188.31Zm0,0a2,2,0,0,0,.71,3.84C105.26,192.17,105,187.09,102.13,188.31Zm0,0a2,2,0,0,0,.71,3.84C105.26,192.17,105,187.09,102.13,188.31Zm0,0a2,2,0,0,0,.71,3.84C105.26,192.17,105,187.09,102.13,188.31Zm0,0a2,2,0,0,0,.71,3.84C105.26,192.17,105,187.09,102.13,188.31Zm0,0a2,2,0,0,0,.71,3.84C105.26,192.17,105,187.09,102.13,188.31Zm288.56-34.79c-5.61-16.29-21.24-26.21-26.18-43.17-4.8-16.47-1.08-33.13-4.81-49.76C354.12,35.65,332.4,14.13,308.55,6a92.31,92.31,0,0,0-20.32-4.42c-16.82-1.76-34.18.72-50.4,5.84-17.81,5.64-32.71,11.06-51.6,10-20-1.09-38.47-6.21-58-10.14C114.43,4.52,102.63-.3,88.4,2.62A65.93,65.93,0,0,0,55.76,20.27c-11.82,11.66-22,30.15-22.94,47.05-.8,14.37.41,30-8.06,42.83C16.07,123.35,6.33,134.71,3,150.7c-1.4,6.74-1.61,13.67-1.75,20.56Q.14,226.88,4,282.46c2.38,34.47,4.58,70.21,14.67,103.45,10.19,33.61,30.09,65.64,60.53,83.16,19.56,11.27,40,26.1,60.46,36.75,14.28,7.43,30.69,9.45,46.75,10.4,14.75.86,29.72.92,44.09-2.56,14.65-3.57,28.15-10.69,41.48-17.74l36.59-19.36C355.17,451.88,373,418.2,382,367.31a1054.67,1054.67,0,0,0,15.13-141C398.09,202.29,398.6,176.54,390.69,153.52ZM210.59,319.43a31.08,31.08,0,0,1,3-2.16c.26-.17.53-.33.8-.49q.8-.48,1.62-.9c.56-.29,1.13-.56,1.71-.83s1.14-.49,1.72-.71a31.93,31.93,0,0,1,6.91-1.83,27.51,27.51,0,0,1,12.86,1.07c2.74.93,5.81,3.31,5,6.1-.67,2.19-3.34,3-5.62,3.17a31.29,31.29,0,0,1-4.22,0h-.09c-4.58-.28-9.14-1.36-13.68-2.15a42.8,42.8,0,0,0-10.76-.71Zm-50.54-3.29c-2.71.21-5.4.84-8.13.86a3.39,3.39,0,0,1-.45,0c-3.8,0-11.88-3.93-8.5-9,2.54-3.77,9.71-1.81,15.67.95.67.31,1.33.63,2,1,.42.21.83.43,1.24.65a37.1,37.1,0,0,1,5,3.15c1.41,1.13,2.76,2.39,4.09,3.66A31.9,31.9,0,0,0,160.05,316.14ZM79.68,156.06c-12.11.34-21.66,3.84-32.43,8.84-6.14,2.87-15,9-21.49,9.68,5.19-7.52,8.7-15.05,15.39-21.47S56.27,140,65.38,137.44c7.59-2.14,15.71-2.94,23.29-3.34a209.5,209.5,0,0,1,34.79,1c13.57,1.54,28.1,5.52,40.17,11.89,3.53,1.87,6.45,5.5,5.88,9.32-.51,3.32-3.52,5.84-6.71,7.27-.24.1-.49.21-.74.3h0c-.11,0-.21.09-.32.12a10.31,10.31,0,0,1-1.06.38l-.65.21c-.32.1-.65.19-1,.26-.5.13-1,.24-1.49.33l-.54.1c-.34.06-.69.11-1,.15s-.82.09-1.24.12l-.65,0c-.93.06-1.87.07-2.81,0q-.39,0-.78,0c-.89,0-1.79-.11-2.69-.21l-1.13-.13-.25,0-.34-.05-.93-.15c-.44-.06-.88-.14-1.31-.22l-.89-.17c-.81-.15-1.6-.32-2.39-.5l-.88-.21c-3.27-.77-6.5-1.69-9.65-2.52-16.31-4.31-32.56-5.73-49.31-5.34Zm24,54.27A18.07,18.07,0,0,1,91,193.77a25,25,0,0,1,.67-5.77c6.93-2.07,14.1-3.59,21.32-3.31a33.74,33.74,0,0,1,9.8,1.88c2.43,6.19,3.87,13.11-.89,18.42A18.79,18.79,0,0,1,103.64,210.33Zm180.85,4.32c-15.9,2.82-23.64-12-18.43-24.4a48.32,48.32,0,0,1,17.72-2,55.85,55.85,0,0,1,10.61,1.85v0C299.15,199.66,296.75,212.47,284.49,214.65Zm70.64-36.31c-12.5-9.44-27-14.86-42.62-17.37-11.49-1.85-23.18-1.3-34.7,0-10.57,1.16-21.64,1.76-32,4.35-6.72,1.69-14.23,4.43-20.19,1.09a3.29,3.29,0,0,1-.49-.26l-.23-.15-.11-.08a3.48,3.48,0,0,1-.39-.28,10.3,10.3,0,0,1-1-.81c-.15-.14-.29-.29-.44-.44l0,0c-.15-.16-.3-.34-.44-.52s-.23-.28-.34-.43a11.38,11.38,0,0,1-1.52-2.86c-.06-.15-.11-.31-.16-.46a10.72,10.72,0,0,1-.34-5.33c1.39-7,9.29-9.14,15.05-11.46a52,52,0,0,1,7.18-2.12c16.27-4,33.14-6,49.79-4.73,12,.93,24.49,2,35.48,6.57a50.26,50.26,0,0,1,8.2,4.26c13,8.38,22.67,20.26,27.53,35.07A78.37,78.37,0,0,1,355.13,178.34Zm-253,10a2,2,0,0,0,.71,3.84C105.26,192.17,105,187.09,102.13,188.31Zm0,0a2,2,0,0,0,.71,3.84C105.26,192.17,105,187.09,102.13,188.31Zm0,0a2,2,0,0,0,.71,3.84C105.26,192.17,105,187.09,102.13,188.31Zm0,0a2,2,0,0,0,.71,3.84C105.26,192.17,105,187.09,102.13,188.31Zm0,0a2,2,0,0,0,.71,3.84C105.26,192.17,105,187.09,102.13,188.31Zm0,0a2,2,0,0,0,.71,3.84C105.26,192.17,105,187.09,102.13,188.31Zm0,0a2,2,0,0,0,.71,3.84C105.26,192.17,105,187.09,102.13,188.31Z"/><path class="cls-1" d="M274.54,196.38a2,2,0,0,1-.71-3.84C276.71,191.32,277,196.4,274.54,196.38Z"/><path class="cls-1" d="M57.8,192.77a68.56,68.56,0,0,1,39-21.4c20.15-3.28,41.4,5.39,52.22,22.85"/><path class="cls-1" d="M237.52,195.57c7.12-8.68,17.61-14.24,28.59-16.56s22.45-1.58,33.41.84c6.37,1.4,12.34,3,17.29,7.16,5.21,4.38,10.27,9,15.4,13.45"/><path class="cls-2" d="M122.78,186.58a33.74,33.74,0,0,0-9.79-1.89c-7.23-.28-14.4,1.25-21.33,3.31a25.55,25.55,0,0,0-.67,5.77,18.08,18.08,0,0,0,12.65,16.56A18.72,18.72,0,0,0,121.89,205C126.66,199.68,125.22,192.76,122.78,186.58Zm-19.94,5.58a2,2,0,0,1-.72-3.85C105,187.09,105.26,192.17,102.84,192.16Z"/><path class="cls-1" d="M122.78,186.58c8.73,3,16.22,9.27,23,15.67"/><path class="cls-1" d="M65.32,204.07c7.51-5.76,15.76-12.78,24.84-15.61l1.5-.46"/><path class="cls-1" d="M102.84,192.16a2,2,0,0,1-.72-3.85C105,187.09,105.26,192.17,102.84,192.16Z"/><path class="cls-1" d="M274.54,196.38a2,2,0,0,1-.71-3.84C276.71,191.32,277,196.4,274.54,196.38Z"/><path class="cls-2" d="M294.38,190.15h0a55.73,55.73,0,0,0-10.61-1.86,48.37,48.37,0,0,0-17.72,2c-5.21,12.45,2.54,27.21,18.43,24.39C296.74,212.47,299.15,199.66,294.38,190.15Zm-19.84,6.23a2,2,0,0,1-.71-3.84C276.71,191.32,277,196.4,274.54,196.38Z"/><path class="cls-1" d="M294.38,190.15c10.91,3,21,9.26,29.28,17"/><path class="cls-1" d="M266.05,190.26a41.24,41.24,0,0,0-21.8,15.12"/><path class="cls-1" d="M147.2,278.51c-9.35,4.56-17.34,17.78-14.55,28.21,1.47,5.51,6.21,10,10.92,12.93,5.63,3.49,11.48,3,17.82,3.72"/><path class="cls-1" d="M244.87,278.59c4.09,4.78,8.4,9,11.79,14.24a30.41,30.41,0,0,1,4.36,9.81c2.24,10.48-5.07,22.07-15.51,24.53-6,1.43-15.66,1.69-21.6-.38"/><path class="cls-1" d="M208.86,321.06c1.38-4.39,3.77-8.34,7.68-10.61,1.82-1.06,3.85-1.68,5.75-2.6,10.53-5.09,16.34-20.4,12.29-31.3-.27-.71-.57-1.39-.89-2.07-.73-1.56-1.59-3.05-2.44-4.55C225,258.88,215.16,245.31,214,232.61Q212.4,216.32,211.6,200c-.31-6.4-.5-13,1.74-19s6.63-10.77,11.59-15c2.24-1.88,4.6-3.68,6.92-5.41"/><path class="cls-1" d="M154.4,158.58a50.29,50.29,0,0,1,7.64,5.29h0a52.09,52.09,0,0,1,11.39,13.23c5,8.31,4.5,18.26,3.16,27.49-.92,6.39-2.1,12.78-2.58,19.22-.44,6,1,12.52-.8,18.31-3.56,11.63-12.36,20.66-17.42,31.65-4.72,10.26.18,24.19,8.06,31.45,1.69,1.56,3.57,2.95,4.86,4.85,1.62,2.35,2.23,5.3,3.05,8.09"/><path class="cls-2" d="M244.24,319.68c-.67,2.19-3.34,3-5.62,3.17a31.29,31.29,0,0,1-4.22,0h-.09c-4.58-.28-9.14-1.36-13.68-2.15a42.8,42.8,0,0,0-10.76-.71l.72-.59a31.08,31.08,0,0,1,3-2.16c.26-.17.53-.33.8-.49q.8-.46,1.62-.9c.56-.29,1.13-.56,1.71-.83s1.14-.49,1.72-.71a31.93,31.93,0,0,1,6.91-1.83,27.51,27.51,0,0,1,12.86,1.07C242,314.51,245.07,316.89,244.24,319.68Z"/><path class="cls-2" d="M170.94,317.41a31.9,31.9,0,0,0-10.89-1.27c-2.71.21-5.4.84-8.13.86a3.39,3.39,0,0,1-.45,0c-3.8,0-11.88-3.93-8.5-9,2.54-3.77,9.71-1.81,15.67.95.67.31,1.33.63,2,1,.42.21.83.43,1.24.65a37.1,37.1,0,0,1,5,3.15C168.26,314.88,169.61,316.14,170.94,317.41Z"/><path class="cls-1" d="M170.94,317.41c2.55,2.39,5.09,4.81,8.21,6.35,4.18,2.09,9,2.42,13.71,2.6,6.8.24,12.37-1,17-6.36"/><path class="cls-2" d="M169.5,156.3c-.5,3.32-3.52,5.85-6.71,7.27-.24.11-.49.21-.74.3-6.86,2.77-14.47,1.83-21.49.25a177,177,0,0,0-20.44-3.87L98.9,158c-6.26-.66-13-2.11-19.23-1.94-12.11.34-21.65,3.85-32.43,8.85-6.14,2.86-15,9-21.48,9.67,5.19-7.52,8.69-15,15.39-21.47S56.27,140,65.38,137.44c7.58-2.14,15.7-2.94,23.28-3.34a209.47,209.47,0,0,1,34.79,1c13.58,1.55,28.11,5.52,40.17,11.89C167.16,148.85,170.08,152.49,169.5,156.3Z"/><path class="cls-2" d="M363.42,182.3a76.43,76.43,0,0,1-8.3-4c-12.49-9.44-27-14.86-42.62-17.36-11.48-1.86-23.18-1.31-34.69,0-10.57,1.16-21.64,1.77-32,4.35-6.72,1.69-14.23,4.44-20.2,1.1l-.49-.27a11.23,11.23,0,0,1-5-11.4c1.39-7,9.29-9.14,15-11.45a52.12,52.12,0,0,1,7.19-2.13c16.26-4,33.14-6,49.79-4.73,12,.93,24.48,2,35.48,6.57a50.55,50.55,0,0,1,8.19,4.26C348.85,155.62,358.57,167.49,363.42,182.3Z"/><path class="cls-1" d="M102.56,378.07c5.7-2.58,12.31-2.07,18.43-.76s12.12,3.38,18.36,3.77c5.08.31,10.55.19,15.72,1,5.47.87,10.54,3.82,16,4.32,5.33.47,10,3.26,15.07,4.72,6.3,1.82,10.7-.69,16.83-1.41a48.59,48.59,0,0,1,9.17.3c6,.45,12-1.43,18-2.08,9.46-1,19.15,1,28.47-.88,7.08-1.45,14.65-5.09,21.11-1.83"/><path class="cls-1" d="M125.05,378.28h0c3.43-.78,6.82-1.58,10.25-2.37,16.31-3.75,34.64-8.28,50.67-1a12.74,12.74,0,0,0,10.86.39,22.54,22.54,0,0,1,2.82-1.1c7.42-1.89,17.2,0,24.53,1.62,8.7,1.89,16.56,6.33,25.51,7.55,4.43.59,9.19.64,13,2.63"/><path class="cls-1" d="M263.46,385.85c-7.5,13.27-21.37,18.33-36.56,20.57-31.9,4.72-62.34,3.42-90.58-13.24a31.74,31.74,0,0,1-10.57-10.49,18.07,18.07,0,0,1-2.23-4.79"/></g></g></svg>