<svg xmlns="http://www.w3.org/2000/svg" viewBox="0 0 352.83 517.79"><defs><style>.cls-1{fill:none;}.cls-1,.cls-2{stroke:#000;stroke-width:2px;}.cls-1,.cls-2,.cls-3{stroke-linecap:round;stroke-linejoin:round;}.cls-3{stroke:#fff;}</style></defs><title>hanif</title><g id="Layer_2" data-name="Layer 2"><g id="Layer_1-2" data-name="Layer 1"><path class="cls-1" d="M351.81,268.77c-.36-20.93-5.8-41.44-8.39-61.94a98.92,98.92,0,0,1-.73-12,14.12,14.12,0,0,0-4,4.36c-2,3.67-1.27,8.27-2.87,12.12-1.14,2.75-4.79,4.57-7.25,3.94a2.92,2.92,0,0,1-2.17-2c.37-9.37.43-19.69-5.58-26.9-4.43-5.32-11.35-7.83-18.05-9.63a145.25,145.25,0,0,0-21.07-4c-.69-.07-1.38-.16-2.08-.22a145.61,145.61,0,0,0-32.26.34c-10,1.23-20,3.56-28.46,8.84s-15.37,13.91-16.63,23.84c-.32-.21-.65-.42-1-.66a31.57,31.57,0,0,1-4.78-4c.11-.44.22-.89.34-1.33-.86-.51-1.75-1-2.65-1.42A15.5,15.5,0,0,1,191,189.1a12.24,12.24,0,0,1,.17-2.08c1.26-7.54,9-11.88,16.34-14.36-1-1.27-1.1-3.13-1.1-4.79,0-2.08,0-4.27,1.09-6.07,1.32-2.28,4-3.4,6.58-4s5.28-.84,7.65-2c12.17-6.09,25.25-7.92,38.34-10.94,9.82-2.27,20.29-3.92,29.79-.54a59.15,59.15,0,0,1,7.58,3.53l10.14,5.33c4.2,2.2,8.44,4.42,12,7.52A31.23,31.23,0,0,1,328.89,175l0,.18h0c2.67.47,5.33.91,8,1.49,1.33.28,4.17.65,6.66,1.37,1.94-23.22,1.18-44.26-6.83-66.32C324.4,78,313.11,41,282.38,19,260.9,3.7,231.91,7.29,205.52,7.86c-29.47.64-58.8-3.33-88.09-6.59C89.43-1.84,60.72,22.59,46,44.22,27.92,70.84,22,103.61,15.88,134.61a227.18,227.18,0,0,0-4.11,36.69l.51-.08c3.65-.59,7.32-1,11-1.49,1.66-4.47,4-8.54,7.83-11.28s8.47-3.73,12.72-5.62c4.76-2.13,8.09-4.49,13.26-5.77a96.2,96.2,0,0,1,17.49-3c12.16-.76,23,3.1,34.54,5.93,12.72,3.13,25.37,8.17,37.32,13.48a10.49,10.49,0,0,1,3.74,2.36c2.19,2.45,1.47,6.56-.81,8.95a9.75,9.75,0,0,1-1.83,1.5c4.68,2.68,8.61,6.35,9.62,11.36.06.33.12.67.15,1a13.21,13.21,0,0,1-1.54,7.74,22.16,22.16,0,0,1-4.91,6.15,31.52,31.52,0,0,1-4.63,3.46l-.33.2-.57.34c-.78-10-7.21-18.91-15.44-24.6s-18.13-8.51-28-10.23a144.7,144.7,0,0,0-32.47-1.89c-1,0-1.93.11-2.91.18a146,146,0,0,0-20.17,2.9c-6.77,1.48-13.79,3.64-18.49,8.75-6.34,6.9-6.79,17.21-6.88,26.59A3,3,0,0,1,19.34,210c-1.78.75-4.39-.1-6.14-1.77.22,16.71-4.26,33.08-6,49.68-3.14,30.43,5.25,60.48,8.77,90.5,3.19,27.21,6.18,53.25,19,78C47.53,450.32,67.76,463.73,84.8,484c16.45,19.56,44.41,33.53,69.93,32.74l24.8-.74c12.11-.36,24.4-.75,36-4.39,17.72-5.59,34-17.67,45.71-31.69,6.48-7.74,14.65-13.85,22.05-20.72,15.61-14.48,29.77-30.85,39.68-49.8,10.53-20.14,13.08-41.91,18.37-63.68C347.48,320.39,352.24,294.92,351.81,268.77Zm-249.89-50c-4.21,4.39-11.76,4-16.83,1.83a10.63,10.63,0,0,1-6-8.13,15.61,15.61,0,0,1,2.43-10,20.69,20.69,0,0,1,5.9-5.78c.77,0,1.53,0,2.31.07a41.2,41.2,0,0,1,14,3.55C106.43,206.08,106.42,214,101.92,218.72Zm47,100.64a13.24,13.24,0,0,0-3.47-1.87,31,31,0,0,0-9.61-1.32c-1.78-.05-3.66-.13-5.12-1.15s-2.1-3.36-.83-4.57a3.52,3.52,0,0,1,1.19-.71c5-2,10.51.79,14.7,4.09,1.66,1.3,3.27,2.71,5,4C150.16,318.37,149.55,318.87,148.93,319.36ZM243,203.08a17.18,17.18,0,0,1,1.56-3,57.19,57.19,0,0,1,15-1.33,53.28,53.28,0,0,1,6.17.62c5,6.43,5.59,15.74-1.35,21.2-5.46,4.28-14.21,5.12-19.59.23C239.79,216.17,240.78,208.69,243,203.08ZM199.87,315.46c-.62,1.83-2.73,2.77-4.66,2.84s-3.82-.5-5.75-.66a13.64,13.64,0,0,0-7.8,1.77c-1.18-1-2.31-2.13-3.43-3.26,4.43-2.82,9-5.68,14.15-6.3a8.54,8.54,0,0,1,5.42.85A4.31,4.31,0,0,1,199.87,315.46Z"/><path class="cls-1" d="M265.81,199.35a58.49,58.49,0,0,1,33.66,17.93"/><path class="cls-1" d="M244.61,200.07a58.13,58.13,0,0,0-26.3,13.55"/><path class="cls-1" d="M220.18,197a58.47,58.47,0,0,1,75.17,2"/><path class="cls-1" d="M126,197.47c-11.18-10.62-25.46-16.2-39.58-15.47s-28,7.76-38.38,19.5"/><path class="cls-1" d="M103.74,200.23c8,3.45,15.28,8.92,22.25,14.26"/><path class="cls-1" d="M87.39,196.6c-15.11.05-28.76,9.58-40.79,19"/><path class="cls-1" d="M196.84,199.44c-.12.44-.23.89-.34,1.33a22.9,22.9,0,0,1-2.31-2.75C195.09,198.46,196,198.93,196.84,199.44Z"/><path class="cls-1" d="M150.85,202.55c1.39,17.53-.15,38-9.82,52.59-3,4.45-6.07,8.71-8.24,13.6-1.8,4-3,8.37-5.82,11.85-5.56,6.89-10.77,12.06-10.66,21.68.08,7.05,3,14.47,8.61,18.92,4.74,3.74,13.42,3.78,18.93,1.3a24.16,24.16,0,0,0,5.08-3.14"/><path class="cls-1" d="M196.5,200.76c-.85,3.3-1.68,6.59-2.52,9.9-1.65,6.61-3.29,13.33-3.16,20.15.31,15.8,9.63,29.3,12.39,44.55,1.31,7.19,7.39,10.93,10.58,17.16a24.18,24.18,0,0,1,1.55,17.68c-2.38,8.69-10.52,16.06-19.52,15.65-5.81-.27-10.19-2.93-14.16-6.45"/><path class="cls-1" d="M200.22,186.32c-.69,2.65-1.39,5.31-2.07,8-.3,1.16-.6,2.34-.9,3.51-.14.55-.28,1.08-.41,1.63"/><path class="cls-2" d="M150.74,317.83c-.58.54-1.19,1-1.81,1.52a13.24,13.24,0,0,0-3.47-1.87,31.34,31.34,0,0,0-9.61-1.31c-1.78-.05-3.66-.13-5.12-1.16s-2.1-3.35-.83-4.57a3.45,3.45,0,0,1,1.2-.7c5-2,10.5.79,14.69,4.08C147.45,315.12,149.06,316.53,150.74,317.83Z"/><path class="cls-2" d="M199.87,315.45c-.62,1.84-2.73,2.77-4.66,2.85s-3.82-.5-5.75-.66a13.71,13.71,0,0,0-7.8,1.76c-1.18-1-2.31-2.12-3.43-3.26,4.44-2.82,9-5.67,14.15-6.29a8.54,8.54,0,0,1,5.42.85A4.3,4.3,0,0,1,199.87,315.45Z"/><path class="cls-1" d="M178.23,316.14l-2.08,1.32c-3.88,2.42-8.24,5.13-13,5.15-4.52,0-8.93-2.05-12.44-4.78"/><path class="cls-2" d="M101.92,218.72c-4.21,4.39-11.76,4-16.83,1.82a10.6,10.6,0,0,1-6-8.12,15.6,15.6,0,0,1,2.43-10,20.69,20.69,0,0,1,5.9-5.78c.77,0,1.53,0,2.31.07a41,41,0,0,1,14,3.55C106.43,206.08,106.42,214,101.92,218.72Z"/><path class="cls-1" d="M19.86,205.54c-.21,1.46-.37,2.94-.52,4.43"/><path class="cls-1" d="M146.5,206.45a121.74,121.74,0,0,1-7.28,39.37c-9.52,26.21-29.61,38.06-57,38.52-8.62.15-17.37-.24-25.53-2.94-14.65-4.83-26.1-17-32-31C19.25,237.73,18,223.69,19.34,210"/><path class="cls-2" d="M264.46,220.55c-5.46,4.28-14.21,5.12-19.59.24-5.08-4.62-4.09-12.1-1.83-17.72a17.5,17.5,0,0,1,1.57-3,56.43,56.43,0,0,1,21.2-.72C270.79,205.78,271.4,215.1,264.46,220.55Z"/><path class="cls-2" d="M202.24,205.47c-.32-.21-.65-.42-1-.64v0C201.59,205.05,201.92,205.26,202.24,205.47Z"/><path class="cls-1" d="M327.89,205.25c.37,3.31.6,6.65.65,10,.24,11.94-1.58,23.9-6.51,34.75-6.27,13.88-18,25.75-32.77,30.22-8.22,2.49-17,2.67-25.59,2.32-27.43-1.13-47.2-13.46-56.08-39.9a120.73,120.73,0,0,1-6.31-37.79"/><path class="cls-1" d="M201.28,204.81c0-.57,0-1.14,0-1.71"/><path class="cls-1" d="M214.85,392.08c-6.45-.14-12.71-1.9-19.08-2.69-9.59-1.2-19.17.43-28.64,1.78-8,1.15-15.15.35-22.75-1.49-5.31-1.29-10.76-2.57-16.26-2.43-5,.13-9.93,1.44-14.93,1.73s-10.44-.64-13.94-4.23c2.59-1.44,5.32.36,8.28.53,6.38.37,12.48-4.95,18.26-7.08a28.72,28.72,0,0,1,20.57.25c9.7,3.94,13.63,3.52,23.62.34a41.31,41.31,0,0,1,29.91,2c4.17,2,8,4.6,12.3,6.37,4.6,1.91,9,1.7,13.91,1.79,2,0,4.23.16,5.59,1.63a.62.62,0,0,1,.17.28c0,.25-.17.46-.38.6a5.11,5.11,0,0,1-3,.84,21.33,21.33,0,0,1-2.61-.47C222.33,391.22,218.42,392.15,214.85,392.08Z"/><path class="cls-1" d="M220.75,391.72a20,20,0,0,1-5.28,6.42c-17.73,14.52-39.28,14.65-61.05,13.58-10.19-.5-20.53-1.44-30.17-5a26.88,26.88,0,0,1-16.69-18"/><path class="cls-1" d="M155.75,196.4A48.65,48.65,0,0,1,194.19,198"/><path class="cls-1" d="M197.76,200c-.3-.2-.6-.38-.92-.56"/><path class="cls-1" d="M150.52,198.84c-.5.27-1,.55-1.48.84"/><path class="cls-1" d="M157.14,187.65c10.72-3.77,22.77-1.52,33.83,1.44,2,.54,4,1.1,5.92,1.66"/><path class="cls-1" d="M143.55,441a75.56,75.56,0,0,1,37.9-.12"/><path class="cls-2" d="M149.36,174.78a10.2,10.2,0,0,1-1.84,1.51,48.21,48.21,0,0,0-7.16-3.26,152.54,152.54,0,0,0-38.62-8.36,221.16,221.16,0,0,0-32.66-.38c-1,.06-2,.12-2.94.2-5,.31-10,.77-15,1.33-8.5,1-17,2.18-25.41,3.54-.83.13-1.64.26-2.47.37,1.66-4.48,4-8.54,7.83-11.29s8.48-3.73,12.72-5.61c4.76-2.13,8.09-4.49,13.26-5.78a97.92,97.92,0,0,1,17.5-3c12.15-.75,23,3.1,34.53,5.93,12.72,3.14,25.37,8.17,37.33,13.49a10.53,10.53,0,0,1,3.73,2.36C152.35,168.29,151.63,172.4,149.36,174.78Z"/><path class="cls-1" d="M147.52,176.29l-.15.1"/><path class="cls-2" d="M328.89,175l0,.18c-1.78-.3-3.58-.63-5.36-1-8.36-1.77-16.76-3.41-25.21-4.78-5.31-.85-10.65-1.6-16-2.2h0l-2.07-.21h-.05a216.94,216.94,0,0,0-32.34-1.2,153.5,153.5,0,0,0-39,6.47c-.43.14-.88.28-1.33.44-1-1.27-1.1-3.13-1.1-4.79,0-2.08,0-4.27,1.09-6.07,1.32-2.28,4-3.4,6.58-4s5.28-.84,7.65-2c12.17-6.09,25.25-7.92,38.34-10.94,9.82-2.27,20.29-3.92,29.79-.54a59.15,59.15,0,0,1,7.58,3.53l10.14,5.33c4.2,2.2,8.44,4.42,12,7.52A31.23,31.23,0,0,1,328.89,175Z"/><path class="cls-1" d="M212.06,175.65c-1-1.32-3-1.46-4.19-2.57a2.56,2.56,0,0,1-.39-.42"/><path class="cls-3" d="M155.75,196.4a22.3,22.3,0,0,1-4.9,6.15h0a30.76,30.76,0,0,1-4.63,3.45,3,3,0,0,1-.33.21l-.57.34c-.78-10-7.21-18.92-15.44-24.61s-18.13-8.51-28-10.22a145.3,145.3,0,0,0-32.47-1.9c-1,.05-1.93.11-2.91.19a143.06,143.06,0,0,0-20.17,2.9c-6.77,1.47-13.79,3.64-18.49,8.74-6.34,6.91-6.79,17.22-6.88,26.6A3,3,0,0,1,19.34,210h0c-1.78.75-4.39-.1-6.14-1.78a5.67,5.67,0,0,1-1.57-2.32c-1.4-3.94-.46-8.48-2.27-12.24-1.62-3.38-4.59-4.82-6.85-7.51s-2.13-6.56-1.88-10a3.65,3.65,0,0,1,.29-1.43c1.24-2.42,8-3,10.85-3.38.19,0,.37,0,.51-.07,3.65-.59,7.32-1,11-1.49.83-.11,1.64-.24,2.47-.37,8.44-1.36,16.91-2.59,25.41-3.54,5-.56,10-1,15-1.33,1-.08,2-.14,2.94-.2a221.16,221.16,0,0,1,32.66.38A152.54,152.54,0,0,1,140.36,173a48.21,48.21,0,0,1,7.16,3.26c4.68,2.67,8.61,6.35,9.62,11.36.06.32.12.66.15,1A13.24,13.24,0,0,1,155.75,196.4Z"/><path class="cls-3" d="M345.86,192a28.62,28.62,0,0,1-3.17,2.8,14.12,14.12,0,0,0-4,4.36c-2,3.67-1.27,8.27-2.87,12.12-1.14,2.75-4.79,4.57-7.25,3.94a2.92,2.92,0,0,1-2.17-2c.37-9.37.43-19.69-5.58-26.9-4.43-5.32-11.35-7.83-18.05-9.63a145.25,145.25,0,0,0-21.07-4c-.69-.07-1.38-.16-2.08-.22a145.61,145.61,0,0,0-32.26.34c-10,1.23-20,3.56-28.46,8.84s-15.37,13.91-16.63,23.84c-.32-.21-.65-.42-1-.66a31.57,31.57,0,0,1-4.78-4c.11-.44.22-.89.34-1.33-.86-.51-1.75-1-2.65-1.42A15.5,15.5,0,0,1,191,189.1a12.24,12.24,0,0,1,.17-2.08c1.26-7.54,9-11.88,16.34-14.36.45-.16.9-.3,1.33-.44a153.5,153.5,0,0,1,39-6.47,216.94,216.94,0,0,1,32.34,1.2h.05l2.07.21h0c5.35.6,10.69,1.35,16,2.2,8.45,1.37,16.85,3,25.21,4.78,1.78.38,3.58.71,5.36,1h0c2.67.47,5.33.91,8,1.49,1.33.28,4.17.65,6.66,1.37,2.11.6,4,1.42,4.53,2.64a3.56,3.56,0,0,1,.22,1.42C348.3,185.57,348.24,189.45,345.86,192Z"/></g></g></svg>