<svg xmlns="http://www.w3.org/2000/svg" viewBox="0 0 42.42 42.42"><defs><style>.cls-1{fill:none;stroke:#1c1c1c;stroke-miterlimit:10;stroke-width:4px;}.cls-2{fill:#1c1c1c;}</style></defs><title>instagram</title><g id="Layer_2" data-name="Layer 2"><g id="Layer_1-2" data-name="Layer 1"><path class="cls-1" d="M21.21,40.42h0A19.21,19.21,0,0,1,2,21.21H2A19.21,19.21,0,0,1,21.21,2h0A19.21,19.21,0,0,1,40.42,21.21h0A19.21,19.21,0,0,1,21.21,40.42Z"/><path class="cls-2" d="M25.87,10.85H16.55a5.73,5.73,0,0,0-5.73,5.73V25.9a5.74,5.74,0,0,0,5.73,5.73h9.32A5.74,5.74,0,0,0,31.6,25.9V16.58A5.73,5.73,0,0,0,25.87,10.85Zm4.05,15A4.08,4.08,0,0,1,25.85,30H16.57a4.08,4.08,0,0,1-4.07-4.08V16.6a4.07,4.07,0,0,1,4.07-4.07h9.28a4.07,4.07,0,0,1,4.07,4.07Z"/><path class="cls-2" d="M21.21,15.76a5.48,5.48,0,1,0,5.47,5.48A5.48,5.48,0,0,0,21.21,15.76Zm0,9a3.57,3.57,0,1,1,3.57-3.57A3.57,3.57,0,0,1,21.21,24.81Z"/><path class="cls-2" d="M28.1,15.58a1.23,1.23,0,1,1-1.23-1.23A1.23,1.23,0,0,1,28.1,15.58Z"/></g></g></svg>