<svg xmlns="http://www.w3.org/2000/svg" viewBox="0 0 380.86 517.72"><defs><style>.cls-1{fill:none;}.cls-1,.cls-2{stroke:#000;stroke-linecap:round;stroke-linejoin:round;stroke-width:2px;}</style></defs><title>nastaran</title><g id="Layer_2" data-name="Layer 2"><g id="Layer_1-2" data-name="Layer 1"><path class="cls-1" d="M92.79,211.6c-2.48-1.09-6.69-.6-6,3a4.35,4.35,0,0,0,4.66,3.1C95.21,217.36,96.37,213.2,92.79,211.6Zm187,1.7c1.34.41,3,.47,3.94-.54a2.92,2.92,0,0,0,0-3.68c-1.09-1.36-3.18-2.33-4.78-1.13-1.4,1.05-1.86,3.43-.46,4.65A4,4,0,0,0,279.79,213.3Zm-187-1.7c-2.48-1.09-6.69-.6-6,3a4.35,4.35,0,0,0,4.66,3.1C95.21,217.36,96.37,213.2,92.79,211.6Zm181.09-14.13a40.67,40.67,0,0,1,8.89-.15,55.41,55.41,0,0,1,15.62,3.56,26,26,0,0,1,.33,12.65c-1.47,5.84-6,11.13-12,12.15a14.5,14.5,0,0,1-2.18.21c-1.1,0-2.21,0-3.32-.07a19.05,19.05,0,0,1-4.94-.68c-9.5-3.12-10.06-17.36-6.6-26.78A31.82,31.82,0,0,1,273.88,197.47ZM106,217.07c-1.3,6.45-6.83,12-13.3,12.84a9.37,9.37,0,0,1-1.3.11,20.85,20.85,0,0,1-9.62-2.42A17.37,17.37,0,0,1,77.68,225c-3.24-2.82-4.71-7.27-4.76-11.55a29.86,29.86,0,0,1,1-7.69c7.86-3.59,16.18-5.47,24.68-4.11a38.71,38.71,0,0,1,4.24,1A19.28,19.28,0,0,1,106,217.07ZM29,182.48c-.65.39-8.73,7.34-9.37,6.26-1.42-2.46,2-8.23,3.16-10.56a50.78,50.78,0,0,1,8-11.35,49.68,49.68,0,0,1,23-14.1c9-2.42,18.35-2.31,27.61-2,13.39.4,27,1.11,39.76,5.19a7.45,7.45,0,0,1,1.65.68c3.06,1.82,4.44,4.36,3.87,8-1.35,8.7-15.67,5.29-21.22,4.69-8.7-1-17.63-.14-26.19-1.54a54.44,54.44,0,0,0-25.33,1.84C45,172.36,36.9,177.73,29,182.48Zm296.58-15.3c-6.72-2.22-13.87-2.72-20.94-2.87a234.08,234.08,0,0,0-54.42,5.16c-3.23.7-6.67,1.46-9.78.32-6.52-2.41-7.77-12.32-2.36-16.55a18,18,0,0,1,7-2.81,253.38,253.38,0,0,1,46.51-6.58c8.67-.42,17.48-.38,25.89,1.84,15.77,4.17,32,20.06,33.13,37C342.88,176.48,334.92,170.25,325.55,167.18ZM92.79,211.6c-2.48-1.09-6.69-.6-6,3a4.35,4.35,0,0,0,4.66,3.1C95.21,217.36,96.37,213.2,92.79,211.6Zm266.4-104.43a247.31,247.31,0,0,1,3.39,29.19c.18,3.07.38,6.13.58,9.21s.45,6.12.73,9.18.6,6.1,1,9.14.8,6.05,1.31,9.06c.22,1.29.46,2.57.69,3.82,4.14,21.33,12.52,42,13,63.71.29,14-2.77,27.89-5.79,41.57Q367.86,310,361.65,338c-3.94,17.74-7.89,35.59-15.1,52.27-17.74,41-53.24,71.23-87.56,99.89-10.22,8.52-20.74,17.23-33.26,21.76-9.61,3.48-20,4.34-30.2,4.68-15.73.53-31.94-.13-46.44-6.26-13.19-5.56-24.08-15.25-34.75-24.76-25.17-22.47-50.86-45.64-66.67-75.46-5.77-10.87-10.14-22.42-14.22-34-3.92-11.16-6.61-22.89-10.78-33.91-3.63-9.53-5.89-19.42-9.17-29.22C9.06,299.68,3.61,285.11,2,271.16c-1.42-12.22-1.16-25.63-.18-38,1.38-17.87,5.54-35.32,7.27-53.11.22-2.08.36-4.17.53-6.25,2.09-26.48-1.9-53.45,3.35-79.68,8-39.88,34.72-78.27,78.06-82.3,23.9-2.22,47,6.21,70.75,7,9.27.29,20.08-.23,29.07-2.52,10.83-2.77,20.52-9.55,31.48-12.41C270-8.54,325.38,20.61,345.84,64.09A172.38,172.38,0,0,1,359.19,107.17Z"/><path class="cls-2" d="M126.64,164.58c-1.35,8.7-15.67,5.29-21.22,4.69-8.7-1-17.63-.14-26.19-1.54a54.44,54.44,0,0,0-25.33,1.84c-8.87,2.79-17,8.16-24.93,12.91-.65.39-8.73,7.34-9.37,6.26-1.42-2.46,2-8.23,3.16-10.56a50.78,50.78,0,0,1,8-11.35,49.68,49.68,0,0,1,23-14.1c9-2.42,18.35-2.31,27.61-2,13.39.4,27,1.11,39.76,5.19a7.45,7.45,0,0,1,1.65.68C125.83,158.39,127.21,160.93,126.64,164.58Z"/><path class="cls-2" d="M350.55,182.71c-7.67-6.23-15.63-12.46-25-15.53-6.72-2.22-13.87-2.72-20.94-2.87a234.08,234.08,0,0,0-54.42,5.16c-3.23.7-6.67,1.46-9.78.32-6.52-2.41-7.77-12.32-2.36-16.55a18,18,0,0,1,7-2.81,253.38,253.38,0,0,1,46.51-6.58c8.67-.42,17.48-.38,25.89,1.84C333.19,149.86,349.46,165.75,350.55,182.71Z"/><path class="cls-1" d="M329.12,212.92l-.73-1.29a56.34,56.34,0,0,0-36.23-26.11,55.26,55.26,0,0,0-20.23-.49,56,56,0,0,0-24.69,10.37"/><path class="cls-1" d="M115.31,195.11A58.71,58.71,0,0,0,68.55,192a34.23,34.23,0,0,0-13,7.84c-5.78,5.94-8.08,14.35-10.17,22.36"/><path class="cls-1" d="M102.86,202.61c5.73,1.62,11.14,4.47,16.42,7.29a72.22,72.22,0,0,1,6.55,3.84c3.76,2.52,7,5.6,8.47,9.78-2.76,3.13-7.77,1-11.91.46a17.47,17.47,0,0,0-7.12.59c-3.08.84-6,2.27-9,3.42A62.25,62.25,0,0,1,93,231.48a54.27,54.27,0,0,1-6.93.64,38,38,0,0,1-25.28-8.31,64.14,64.14,0,0,1-6.39-5.66"/><path class="cls-1" d="M73.94,205.77a90.32,90.32,0,0,0-15.29,9.13c-1.46,1.08-2.9,2.15-4.29,3.25l-1.21,1"/><path class="cls-2" d="M102.86,202.61a38.71,38.71,0,0,0-4.24-1c-8.5-1.36-16.82.52-24.68,4.11a29.86,29.86,0,0,0-1,7.69c0,4.28,1.52,8.73,4.76,11.55a17.37,17.37,0,0,0,4.14,2.59A20.85,20.85,0,0,0,91.44,230a9.37,9.37,0,0,0,1.3-.11c6.47-.84,12-6.39,13.3-12.84A19.28,19.28,0,0,0,102.86,202.61ZM91.5,217.7a4.35,4.35,0,0,1-4.66-3.1c-.74-3.6,3.47-4.09,6-3C96.37,213.2,95.21,217.36,91.5,217.7Z"/><path class="cls-1" d="M91.5,217.7a4.35,4.35,0,0,1-4.66-3.1c-.74-3.6,3.47-4.09,6-3C96.37,213.2,95.21,217.36,91.5,217.7Z"/><path class="cls-1" d="M269.71,198.36c-8.58,2.38-16.11,8-23.27,13.51-.7.54-1.42,1.08-2.11,1.62-2.43,1.85-4.84,3.71-7.28,5.58-1.57,1.2-.4,1.25.63,2.93s3.17,2.41,5.16,2.41a51.65,51.65,0,0,0,5.89-.78A25.58,25.58,0,0,1,256,224h0c2.75.51,5.5,1.27,8.24,1.87a74.89,74.89,0,0,0,20.42,1.65c.37,0,.75-.05,1.11-.08a76.45,76.45,0,0,0,25.53-6.2,72.71,72.71,0,0,0,8.95-4.61"/><path class="cls-1" d="M298.39,200.88a52.84,52.84,0,0,1,18,11.43,44,44,0,0,1,3.9,4.3c.89,1.13,1.73,2.27,2.51,3.47"/><path class="cls-1" d="M125.83,213.74a47.61,47.61,0,0,1-10.56,10.83"/><path class="cls-1" d="M244.33,213.49c1.8,4.2,6.91,7.69,11.65,10.49h0"/><path class="cls-1" d="M316.35,212.31a23.3,23.3,0,0,1-1.87,3.78c-1,1.74-2.06,3.45-3.18,5.13"/><path class="cls-1" d="M60.75,223.81a36.47,36.47,0,0,1-2.1-8.91"/><path class="cls-1" d="M283.73,212.76c-1,1-2.6,1-3.94.54a4,4,0,0,1-1.34-.7c-1.4-1.22-.94-3.6.46-4.65,1.6-1.2,3.69-.23,4.78,1.13A2.92,2.92,0,0,1,283.73,212.76Z"/><path class="cls-1" d="M141.3,294.68c-2.57,5.64-5.18,11.46-5.45,17.64s2.36,12.93,7.9,15.7c3.93,2,8.6,1.66,12.86,2.75,4.51,1.15,8.48,3.85,12.92,5.26,4.13,1.32,8.53,1.49,12.86,1.5,5.84,0,11.83-.25,17.2-2.53,2.6-1.1,5-2.65,7.49-3.93a40,40,0,0,1,18.75-4.29c4.69.09,9.15-.84,10.78-5.93,1.16-3.64.36-7.58-.57-11.29-1.32-5.29-3.19-11.21-7.95-14.41"/><path class="cls-1" d="M153.71,399.44c5.15-1.8,10.41-4,15.84-3.55,4.31.37,8.21,3,12.5,3.82,5.12,1,10-1.47,14.93-2.48,7.55-1.53,15.15,1.58,22.36,4.28,7.56,2.84,17,5.24,25,2.5.39-.46,0-1.23-.53-1.47a3.8,3.8,0,0,0-1.81-.12,41.63,41.63,0,0,1-10.23-.56,12.07,12.07,0,0,1-5.06-3.16c-5.85-5.37-10.75-11.86-17.34-16.28s-15.83-6.34-22.34-1.79A5.62,5.62,0,0,1,184.3,382c-1.41.07-2.52-1.08-3.59-2-4.93-4.14-12.38-3.95-18.25-1.31s-10.54,7.28-15.19,11.72-9.6,8.88-15.69,10.93a16.6,16.6,0,0,1-5.6,1.06,5.53,5.53,0,0,0-2.26.15c-.7.28-1.23,1.17-.83,1.81a1.8,1.8,0,0,0,1,.64c4.11,1.31,9.27-.5,13.42-1.25A109.08,109.08,0,0,0,153.71,399.44Z"/><path class="cls-2" d="M298.39,200.88a55.41,55.41,0,0,0-15.62-3.56,40.67,40.67,0,0,0-8.89.15,31.82,31.82,0,0,0-4.17.89c-3.46,9.42-2.9,23.66,6.6,26.78a19.05,19.05,0,0,0,4.94.68c1.11.05,2.22.1,3.32.07a14.5,14.5,0,0,0,2.18-.21c5.93-1,10.5-6.31,12-12.15A26,26,0,0,0,298.39,200.88Zm-14.66,11.88c-1,1-2.6,1-3.94.54a4,4,0,0,1-1.34-.7c-1.4-1.22-.94-3.6.46-4.65,1.6-1.2,3.69-.23,4.78,1.13A2.92,2.92,0,0,1,283.73,212.76Z"/></g></g></svg>