<svg xmlns="http://www.w3.org/2000/svg" viewBox="0 0 48.13 56.57"><defs><style>.cls-1{fill:none;stroke:#000;stroke-linecap:round;stroke-linejoin:round;stroke-width:0.5px;}</style></defs><title>pook_1</title><g id="Layer_2" data-name="Layer 2"><g id="Layer_1-2" data-name="Layer 1"><g id="_Group_" data-name="&lt;Group&gt;"><path d="M31.43,24.35a3.26,3.26,0,0,1,.59,3A3.23,3.23,0,0,1,31.43,24.35Z"/><path d="M28.9,30.67c.89,1.48,1.36,3.2-.54,4a13.62,13.62,0,0,0-2,.73c-.8.48-.93,1.23-1.19,2.08-.34,1.13-1.23,2.58-2.51,1.65-1.05-.77-1-2.42-2.18-2.94-1-.45-2.56-.21-3.08-1.44s0-3.45.49-4.71c.7-1.93,1.58-3.81,2.39-5.69.47-1.12,1.1-4.29,2.84-3.47a3.51,3.51,0,0,1,1.34,1.79c.47.93.93,1.86,1.42,2.78C26.83,27.22,27.86,29,28.9,30.67Z"/><path d="M14.39,27.84a3.64,3.64,0,0,1-.34,1.71,3,3,0,0,1-.19-3.14A2.42,2.42,0,0,1,14.39,27.84Z"/><path d="M28.47,26.66c.44,1.66,3.61,1.95,4.91,1.44,2.91-1.15,1.07-5-1.48-5.12C30.05,22.91,27.92,24.57,28.47,26.66ZM16.08,29.08c1.31-1.45.15-3.65-1.41-4.27a3.88,3.88,0,0,0-4.52,1.56,2.27,2.27,0,0,0,1.3,3.49C13,30.29,14.94,30.34,16.08,29.08ZM14.93,30a6.06,6.06,0,0,1-4-.05c-1.24-.31-2.54-.34-3.07,1.07s-.63,2.83-1.18,4.16a26.53,26.53,0,0,0-1.61,3.89,18.81,18.81,0,0,0-.46,4.1,34,34,0,0,1-1.37-6.63A24.35,24.35,0,0,1,3,31.29c.17-1.61.6-3.18.85-4.78a15,15,0,0,0,.19-2.11c1.83-1.16,1.58-3.83,2.32-5.66a5.17,5.17,0,0,1,4.51-3.41A20.88,20.88,0,0,0,7,8.43c-1.6-2-3.58-2.62-6-2.91a1.49,1.49,0,0,1,.33-.27c.94-.59,2.19-.16,3.11.26a17.63,17.63,0,0,1,6,5.19,19.94,19.94,0,0,0,2.8,3,3,3,0,0,0,3.25.52,24.42,24.42,0,0,1,8.86-1.07c1.1.06,2.73.55,3.64-.33A7,7,0,0,0,30,10.42a25.73,25.73,0,0,1,4.49-7.07C35.3,2.48,37.06.46,38.46.29a26,26,0,0,0-3.9,4.82,16,16,0,0,0-3,5.65c-.14.63-.3,1.24.38,1.38a26.39,26.39,0,0,1,2.66.3A10.5,10.5,0,0,1,37.53,14c.48.32.94.66,1.39,1,.19.15,1.1,1.13,1.3,1.11a14.57,14.57,0,0,0,.61,3.13c.86,3,2.18,5.85,3,8.85a23.51,23.51,0,0,1,.59,9.15c0,.29-.07.58-.12.86-2.85-1.08-5.81-2.1-7.34-5a9.22,9.22,0,0,0-6.48-4.87c-1.22-.28-2.6-.26-2.57-1.91a14.23,14.23,0,0,1,.5-2.22,9.79,9.79,0,0,0,.19-2.23c-.06-2.42-.76-5.83-3.48-6.27a3.09,3.09,0,0,1-1.66-.59c-.45-.39-.72-.85-1.35-1-1.18-.18-2.26.89-3.27,1.37A7.14,7.14,0,0,0,14.59,21a4.1,4.1,0,0,0,.56,3.64c.67.8,1.58,1.45,1.63,2.59A3,3,0,0,1,14.93,30Z"/><path class="cls-1" d="M47.88,56.32a28.3,28.3,0,0,0-.74-3c-.79-2.55-2.27-4.8-3-7.36s-.16-5.18.23-7.81c0-.28.08-.57.11-.86a23.51,23.51,0,0,0-.59-9.15c-.85-3-2.17-5.85-3-8.85a14.54,14.54,0,0,1-.61-3.14,10.53,10.53,0,0,1,0-1.26A35.41,35.41,0,0,1,41,10.2a15.57,15.57,0,0,0-1-8.78C39.64.5,39.09.21,38.46.29c-1.4.17-3.16,2.19-3.94,3.06A25.49,25.49,0,0,0,30,10.42a7,7,0,0,1-1.17,2.4c-.91.88-2.54.39-3.64.33-.52,0-1-.05-1.55-.05h-.52l-.52,0-.81,0h-.28a5.61,5.61,0,0,0-.59.06h0l-.58.07-.44.07-.35,0-.45.09-.4.08a24,24,0,0,0-2.32.6,3,3,0,0,1-3.26-.52,20.36,20.36,0,0,1-2.8-3,17.55,17.55,0,0,0-5.95-5.2c-.92-.42-2.17-.85-3.11-.26a1.49,1.49,0,0,0-.33.27C.09,6.39.27,8,.26,9.12A21.3,21.3,0,0,0,2,17.93,32.56,32.56,0,0,1,3.8,22.15a8.56,8.56,0,0,1,.27,2.25,15,15,0,0,1-.19,2.11c-.25,1.6-.68,3.17-.85,4.78a24.35,24.35,0,0,0,.2,5.26A34,34,0,0,0,4.6,43.18c.24.72.5,1.42.81,2.12.66,1.5,1.71,2.72,2.43,4.16a7.32,7.32,0,0,1,.2,4.3c-.11.85-.18,1.7-.21,2.56"/><path class="cls-1" d="M25.17,37.46c-.34,1.13-1.23,2.58-2.51,1.65-1.05-.77-1-2.42-2.18-2.94-1-.45-2.56-.21-3.08-1.44s0-3.45.49-4.71c.7-1.93,1.58-3.81,2.39-5.69.47-1.12,1.1-4.29,2.84-3.47a3.51,3.51,0,0,1,1.34,1.79c.47.93.93,1.86,1.42,2.78.95,1.79,2,3.52,3,5.24.89,1.48,1.36,3.2-.54,4a13.62,13.62,0,0,0-2,.73C25.56,35.86,25.43,36.61,25.17,37.46Z"/><path class="cls-1" d="M23.39,39.42c.82,3.28,3.41,5.33,6.72,4.87"/><path class="cls-1" d="M17.5,45.05A2.39,2.39,0,0,0,18,45c2.83-.54,5.25-2.7,5.36-5.6"/><path class="cls-1" d="M4.6,43.18a18.81,18.81,0,0,1,.46-4.1,26.53,26.53,0,0,1,1.61-3.89c.55-1.33.67-2.82,1.18-4.16S9.68,29.65,10.92,30a6.06,6.06,0,0,0,4,.05,3,3,0,0,0,1.85-2.77c-.05-1.14-1-1.79-1.63-2.59A4.1,4.1,0,0,1,14.59,21a7.14,7.14,0,0,1,4.28-5.54c.92-.44,1.74-1.28,2.8-1.38s2.1,1,3.07,1.42,2.18.8,2.83,1.89a9.39,9.39,0,0,1,1.06,4.51,9.79,9.79,0,0,1-.19,2.23,14.23,14.23,0,0,0-.5,2.22c0,1.65,1.35,1.63,2.57,1.91A9.22,9.22,0,0,1,37,33.14c1.53,2.89,4.49,3.91,7.34,5"/><path class="cls-1" d="M13.74,26.28a3,3,0,0,0,.44,3.12,3.73,3.73,0,0,0,.21-1.74A2.51,2.51,0,0,0,13.74,26.28Z"/><path class="cls-1" d="M31.43,24.35a3.23,3.23,0,0,0,.59,3A3.26,3.26,0,0,0,31.43,24.35Z"/><path class="cls-1" d="M10.15,26.37a2.27,2.27,0,0,0,1.3,3.49c1.51.43,3.49.48,4.63-.78,1.31-1.45.15-3.65-1.41-4.27A3.88,3.88,0,0,0,10.15,26.37Z"/><path class="cls-1" d="M31.9,23c2.55.1,4.39,4,1.48,5.12-1.3.51-4.47.22-4.91-1.44C27.92,24.57,30.05,22.91,31.9,23Z"/><path class="cls-1" d="M38.51.25l0,0a26,26,0,0,0-3.9,4.82,16,16,0,0,0-3,5.65c-.14.63-.3,1.24.38,1.38a17.27,17.27,0,0,0,1.76.08A8.5,8.5,0,0,1,37.52,14a22.07,22.07,0,0,1,2.69,2.13"/><path class="cls-1" d="M.92,5.52h0c2.47.29,4.45.86,6.05,2.91a20.88,20.88,0,0,1,3.93,6.9,5.17,5.17,0,0,0-4.51,3.41c-.74,1.83-.49,4.5-2.32,5.66"/></g></g></g></svg>