<svg xmlns="http://www.w3.org/2000/svg" viewBox="0 0 94.44 94.44"><defs><style>.cls-1{fill:none;stroke:#1c1c1c;stroke-miterlimit:10;stroke-width:9px;}.cls-2{fill:#1c1c1c;}</style></defs><title>twitter_1</title><g id="Layer_2" data-name="Layer 2"><g id="OBJECTS"><path class="cls-1" d="M47.22,89.94h0A42.72,42.72,0,0,1,4.5,47.22h0A42.72,42.72,0,0,1,47.22,4.5h0A42.72,42.72,0,0,1,89.94,47.22h0A42.72,42.72,0,0,1,47.22,89.94Z"/><path class="cls-2" d="M71.2,35A18.19,18.19,0,0,1,66,36.43a9.13,9.13,0,0,0,4-5,17.91,17.91,0,0,1-5.76,2.19,9.06,9.06,0,0,0-15.67,6.21,9.29,9.29,0,0,0,.23,2.06A25.72,25.72,0,0,1,30.1,32.41a9.09,9.09,0,0,0,2.81,12.1,9.08,9.08,0,0,1-4.11-1.13v.11a9.09,9.09,0,0,0,7.27,8.89,9.36,9.36,0,0,1-2.38.31A8.7,8.7,0,0,1,32,52.53a9.06,9.06,0,0,0,8.47,6.29A18.15,18.15,0,0,1,29.19,62.7,19.28,19.28,0,0,1,27,62.58a25.65,25.65,0,0,0,13.89,4.07c16.67,0,25.78-13.81,25.78-25.78,0-.4,0-.79,0-1.18A18.33,18.33,0,0,0,71.2,35Z"/></g></g></svg>