<svg xmlns="http://www.w3.org/2000/svg" viewBox="0 0 42.42 42.42"><defs><style>.cls-1{fill:none;stroke:#1c1c1c;stroke-miterlimit:10;stroke-width:4px;}.cls-2{fill:#1c1c1c;fill-rule:evenodd;}</style></defs><title>youtube</title><g id="Layer_2" data-name="Layer 2"><g id="Layer_1-2" data-name="Layer 1"><path class="cls-1" d="M21.21,40.42h0A19.21,19.21,0,0,1,2,21.21H2A19.21,19.21,0,0,1,21.21,2h0A19.21,19.21,0,0,1,40.42,21.21h0A19.21,19.21,0,0,1,21.21,40.42Z"/><path class="cls-2" d="M31.15,17.52a3,3,0,0,0-3-3H14.09a3,3,0,0,0-3,3v8a3,3,0,0,0,3,3H28.15a3,3,0,0,0,3-3Zm-12,7.41V17.38l5.73,3.77Z"/></g></g></svg>